<svg width="512" height="512" viewBox="0 0 512 512" fill="none" xmlns="http://www.w3.org/2000/svg">
  <path d="M256 0L477.702 128V384L256 512L34.2975 384V128L256 0Z" fill="#0B4A8B"/>
  <path d="M256 0L477.702 128L331 213.5C309.322 177.998 269.997 154.25 225.125 154.25C160.214 154.25 107.5 206.964 107.5 271.875C107.5 336.786 160.214 389.5 225.125 389.5C269.997 389.5 309.322 365.752 331 330.25L477.702 384L256 512L34.2975 384V128L256 0Z" fill="#6598D0"/>
  <path d="M477.702 128V384L328.728 298.025C337.185 282.411 342 264.523 342 245.5C342 226.477 337.185 208.589 328.728 192.975L477.702 128Z" fill="#1560A6"/>
  <path d="M341.75 153.375C314.991 126.616 277.782 110 236.75 110C154.601 110 88 176.601 88 258.75C88 340.899 154.601 407.5 236.75 407.5C277.782 407.5 314.991 390.884 341.75 364.125L307.84 330.215C289.762 348.293 264.789 359.5 236.75 359.5C181.11 359.5 136 314.39 136 258.75C136 203.11 181.11 158 236.75 158C264.789 158 289.762 169.207 307.84 187.285L341.75 153.375Z" fill="#FAFAFA"/>
</svg>
